<?xml version="1.0" encoding="UTF-8"?>
<svg width="142px" height="53px" viewBox="0 0 142 53" version="1.1" xmlns="http://www.w3.org/2000/svg" xmlns:xlink="http://www.w3.org/1999/xlink">
    <!-- Generator: Sketch 63.1 (92452) - https://sketch.com -->
    <title>Group</title>
    <desc>Created with Sketch.</desc>
    <g id="HEADER" stroke="none" stroke-width="1" fill="none" fill-rule="evenodd">
        <g id="HEADER-VILAWEB25" transform="translate(-233.000000, -303.000000)" fill="#FFFFFF">
            <g id="Group" transform="translate(233.000000, 303.000000)">
                <path d="M131.753637,11.7449239 L132.361785,9.02284264 L131.385063,8.71827411 L130.537342,9.93654822 L125.561591,10.4314721 C127.281604,9.32741117 128.657614,8.16941624 129.689622,6.95748731 C130.721629,5.74555838 131.237633,4.51142132 131.237633,3.25507614 C131.237633,2.65862944 131.084061,2.11294416 130.776916,1.6180203 C130.46977,1.12309645 130.027481,0.729695431 129.450048,0.437817259 C128.872616,0.145939086 128.196896,0 127.42289,0 C126.562884,0 125.702877,0.199873096 124.842871,0.599619289 C123.982865,0.999365482 123.368574,1.45939086 123,1.97969543 L123,1.97969543 L123.552861,2.87436548 C123.982865,2.49365482 124.468154,2.17322335 125.008729,1.91307107 C125.549305,1.65291878 126.102166,1.52284264 126.667313,1.52284264 C127.392176,1.52284264 127.941966,1.75761421 128.316683,2.22715736 C128.6914,2.69670051 128.878758,3.25507614 128.878758,3.90228426 C128.878758,4.96827411 128.31054,6.12626904 127.174103,7.37626904 C126.037666,8.62626904 124.646298,9.77791878 123,10.8312183 L123,10.8312183 L123.331717,11.7449239 L131.753637,11.7449239 Z M135.199806,15 C136.416101,15 137.546395,14.7366751 138.590689,14.2100254 C139.634982,13.6833756 140.464274,12.9822335 141.078565,12.106599 C141.692855,11.2309645 142,10.2982234 142,9.30837563 C142,8.44543147 141.818784,7.70304569 141.456353,7.08121827 C141.093922,6.45939086 140.605561,5.98984772 139.991271,5.67258883 C139.37698,5.35532995 138.707404,5.19670051 137.982541,5.19670051 C137.257679,5.19670051 136.545102,5.34898477 135.844811,5.6535533 L135.844811,5.6535533 L136.471387,2.1319797 L140.85742,2.1319797 L141.410281,0.019035533 L140.322987,0.019035533 L140.064985,0.247461929 L134.886518,0.247461929 L134.241513,6.56725888 L134.849661,6.87182741 C135.549952,6.64340102 136.213385,6.52918782 136.839961,6.52918782 C137.699968,6.52918782 138.378758,6.77664975 138.876334,7.2715736 C139.373909,7.76649746 139.622696,8.54060914 139.622696,9.59390863 C139.622696,10.4314721 139.395409,11.1706853 138.940834,11.8115482 C138.486259,12.4524112 137.887326,12.9505076 137.144035,13.3058376 C136.400744,13.6611675 135.611381,13.8388325 134.775946,13.8388325 C134.53023,13.8388325 134.345942,13.8324873 134.223084,13.819797 L134.223084,13.819797 L134.204656,14.8857868 C134.450372,14.9619289 134.782089,15 135.199806,15 Z" id="25" fill-rule="nonzero"></path>
                <polygon id="Path-3" points="0 7 2.65317495 11.598908 6.55324496 53 13.546239 53 17.4890512 11.598908 20 7 13.0946584 7 10 42.3583532 6.99522398 7"></polygon>
                <rect id="Rectangle" x="21" y="13" width="5" height="5"></rect>
                <polygon id="Rectangle-Copy" points="20 22 26.586467 22 26.586467 48.3039068 29 53 20 53 21.9379177 48.63726 21.9379177 26.6431016"></polygon>
                <polygon id="Rectangle-Copy-2" points="29 7 35.586467 7 35.586467 48.382388 38 53 29 53 30.9379177 48.7101701 30.9379177 11.5655061"></polygon>
                <path d="M50.2963649,22 C52.5055039,22 54.2963649,23.790861 54.2963649,26 L54.2963649,26 L54.2963649,48.1719952 L57,53 L44,53 C41.790861,53 40,51.209139 40,49 L40,49 L40,38.449653 C40,36.240514 41.790861,34.449653 44,34.449653 L44,34.449653 L49.6903502,34.449653 L49.6903502,26.5090909 L45.2680256,26.5090909 L40.6187875,30.5959029 L40.6187875,22 Z M49.1575957,38.9090909 L45.164493,38.9090909 L45.164493,48.4909091 L49.1575957,48.4909091 L49.1575957,38.9090909 Z" id="Combined-Shape-Copy-2"></path>
                <path d="M116.617093,7 L114.166667,11.7062769 L114.166667,48.2526808 L117,53 L104,53 C101.790861,53 100,51.209139 100,49 L100,49 L100,26.5180723 C100,24.3089333 101.790861,22.5180723 104,22.5180723 L104,22.5180723 L109.066667,22.5180723 L109.066667,7 L116.617093,7 Z M109.066667,26.9518072 L105.1,26.9518072 L105.1,48.5662651 L109.066667,48.5662651 L109.066667,26.9518072 Z" id="Combined-Shape-Copy-3" transform="translate(108.500000, 30.000000) scale(-1, 1) translate(-108.500000, -30.000000) "></path>
                <path d="M95,22 C97.209139,22 99,23.790861 99,26 L99,26 L99,49 C99,51.209139 97.209139,53 95,53 L95,53 L89,53 C86.790861,53 85,51.209139 85,49 L85,49 L85,35.5159189 L94.0432218,35.5159189 L94.0432218,26.51144 L90.2998462,26.51144 L85.5930361,30.5959029 L85.5930361,22 Z M93.9836824,38.9090909 L90.0566019,38.9090909 L90.0566019,48.4909091 L93.9836824,48.4909091 L93.9836824,38.9090909 Z" id="Combined-Shape-Copy" transform="translate(92.000000, 37.500000) rotate(-180.000000) translate(-92.000000, -37.500000) "></path>
                <path d="M71.9425616,7 L71.9425616,48.0397745 L75.7948333,48.0397745 L75.7948333,7 L83,7 L80.7454475,11.7926842 L80.7454475,50.3590919 C80.7454475,51.8176252 79.5747377,53 78.130594,53 L60.869406,53 C59.4481852,53 58.2917868,51.854863 58.2554338,50.4283335 L58.2545525,11.7926842 L56,7 L63.1589111,7 L63.1589111,48.0397745 L66.986247,48.0397745 L66.986247,7 L71.9425616,7 Z" id="Path-Copy-2"></path>
            </g>
        </g>
    </g>
</svg>